<svg version="1.2" xmlns="http://www.w3.org/2000/svg" viewBox="0 0 100 100" width="100" height="100">
	<title>Proyecto nuevo</title>
	<style>
		.s0 { fill: #212324 } 
		.s1 { fill: #ffffff } 
	</style>
	<path id="path12 copy" class="s0" d="m-87.3 252.8h366.5v-366.5h-366.5z"/>
	<path id="path438" class="s1" d="m17.7 68.2v-0.2h0.1q0.3 0 1-0.1 0.6-0.1 1.3-0.7 0.6-0.6 1.2-1.7 0.5-1.1 0.5-3.1v-25.2q0-2-0.5-3.1-0.6-1.1-1.2-1.7-0.7-0.5-1.3-0.7-0.7-0.1-1-0.1h-0.1v-0.2h16.8v0.2h-0.2q-0.1 0-0.5 0-0.4 0.1-0.8 0.3-0.4 0.2-0.9 0.5-0.5 0.4-0.8 1-0.4 0.6-0.7 1.6-0.3 0.9-0.3 2.2v30.1h9.4q1.1 0 1.9-0.4 0.9-0.4 1.5-0.9 0.7-0.6 1.2-1.2 0.4-0.7 0.7-1.4 0.8-1.6 1-3.6h1.4l-0.9 7.6-0.2 0.8z"/>
	<path id="path446" fill-rule="evenodd" class="s1" d="m52.9 68.2v-0.2h0.1q0.3 0 0.9-0.1 0.7-0.1 1.4-0.7 0.6-0.6 1.1-1.7 0.6-1.1 0.7-3.1v-25.2q-0.1-2-0.7-3.1-0.5-1.1-1.1-1.7-0.7-0.5-1.4-0.7-0.6-0.1-0.9-0.1h-0.1v-0.2h21.6q3.2 0 5.4 0.7 2.3 0.7 3.7 1.8 1.4 1.2 2 2.9 0.7 1.6 0.7 3.5 0 1.9-0.6 3.8-0.7 1.8-2 3.3-1.4 1.4-3.7 2.3-2.2 0.9-5.4 0.9h-9.1v11.8q0 2 0.6 3.1 0.5 1.1 1.2 1.7 0.6 0.6 1.3 0.7 0.6 0.1 0.9 0.1h0.1v0.2zm18.3-18.4q1.5 0 2.6-0.5 1.1-0.5 1.8-1.4 0.8-0.8 1.2-1.9 0.5-1 0.7-2.1 0.3-1.1 0.4-2 0-0.9 0-1.6 0-0.6 0-1.5-0.1-0.8-0.3-1.7-0.3-0.9-0.7-1.8-0.5-0.9-1.2-1.6-0.8-0.7-1.9-1.1-1.1-0.4-2.6-0.4h-5.7v17.6z"/>
</svg>